<?xml version="1.0" encoding="UTF-8"?>
<svg viewBox="0 0 88 284" version="1.1" xmlns="http://www.w3.org/2000/svg" xmlns:xlink="http://www.w3.org/1999/xlink">
    <title>Bud</title>
    <g id="bud" fill="currentColor" fill-rule="nonzero">
        <path d="M47.9417575,85.65 L47.9417575,133.11 C61.4117575,115.95 73.5617575,99.39 87.0417575,82.08 C88.6117575,98.89 87.9817575,113.83 77.7517575,126.68 C72.1917575,133.67 64.4217575,136.71 55.7217575,137.54 C53.4117575,137.76 51.0517575,137.57 48.8517575,137.57 C47.4617575,142.23 47.2817575,184.31 48.6817575,191.04 C61.3917575,174.38 73.7717575,158.16 86.9917575,140.83 C88.6517575,157.25 87.9617575,171.82 78.4717575,184.56 C72.7317575,192.27 64.4717575,195.6 55.1017575,196.36 C52.9817575,196.53 50.8217575,196.39 48.0017575,196.39 C47.4517575,214.18 47.8917575,231.59 47.7217575,248.99 L49.0117575,249.39 C61.3917575,233.16 73.7617575,216.93 86.9917575,199.58 C88.6317575,216.02 87.9717575,230.58 78.4817575,243.33 C72.7317575,251.05 64.4617575,254.33 55.1117575,255.15 C52.9917575,255.34 50.4417575,255.595581 48.0017575,255.595581 C47.7817575,261.543457 47.9217575,266.29 47.7817575,271.67 C47.6417575,276.92 47.9417575,277.120171 47.9417575,283.051746 C44.6387329,283.051746 43.241394,283.051746 40.0717575,283.051746 L40.0717575,255.73 C35.8617575,254.79 31.7417575,255.31 27.7417575,254.44 C16.7017575,252.06 9.05175745,245.72 4.67175745,235.5 C0.171757453,225 -0.728242547,213.93 0.501757453,202.65 C0.561757453,202.13 0.971757453,201.65 1.53175745,200.5 C14.1817575,217.09 26.5917575,233.36 39.6817575,250.53 L39.6817575,196.9 C35.6217575,195.99 31.5117575,196.55 27.4817575,195.63 C17.4417575,193.34 10.0417575,187.84 5.58175745,178.62 C0.0417574527,167.16 -0.828242547,155.04 1.23175745,142.35 C14.3517575,158.22 26.5017575,174.75 39.8117575,191.82 L39.8117575,138.42 C37.9317575,137.08 35.6917575,137.83 33.6217575,137.69 C19.8817575,136.73 9.84175745,130.39 4.48175745,117.49 C-0.0482425473,106.57 -0.738242547,95.2 1.73175745,83.23 C14.1417575,99.5 26.5617575,115.77 38.9717575,132.04 C40.1817575,124.24 40.0817575,116.57 40.1017575,108.89 C40.1217575,101.25 40.1017575,93.61 40.1017575,86.47 C39.5417575,84.77 38.5017575,84.15 37.6517575,83.37 C24.1117575,71.01 19.5517575,55.79 23.6217575,38.07 C26.9317575,23.67 34.1917575,11.24 43.4517575,0 C45.5817575,0.19 46.1817575,1.82 47.0617575,2.98 C55.4117575,14.02 62.0317575,25.91 64.7917575,39.67 C68.2417575,56.89 63.4717575,71.4 50.5617575,83.27 C49.7117575,84.06 48.8417575,84.83 47.9517575,85.65 L47.9417575,85.65 Z" id="Path"></path>
    </g>
</svg>