<?xml version="1.0" encoding="UTF-8"?>
<svg viewBox="0 0 91 232" version="1.1" xmlns="http://www.w3.org/2000/svg" xmlns:xlink="http://www.w3.org/1999/xlink">
    <title>Dandelion</title>
    <g id="dandelion" fill="currentColor" fill-rule="nonzero">
        <path d="M90.7241745,143.94 C90.6141745,142.18 91.8041745,139.76 88.4641745,138.51 C84.2941745,143.94 80.0541745,149.48 75.7941745,155.02 C71.5141745,160.6 67.3841745,166.31 62.9041745,171.72 C58.6541745,176.86 55.9441745,183.47 49.0041745,187.53 C49.2341745,169.03 48.7241745,151.61 49.3341745,134.03 C64.2041745,133.14 76.7741745,129.94 84.0341745,116.79 C90.7441745,104.65 91.8341745,91.71 89.8741745,76.25 C75.4141745,94 63.6341745,111.19 49.5941745,128.27 L49.5941745,80.57 C69.9441745,78.48 85.8241745,61.29 85.8241745,40.38 C85.8441745,18.09 67.7541745,0 45.4441745,0 C23.1341745,0 5.04417453,18.09 5.04417453,40.4 C5.04417453,60.16 19.2441745,76.58 37.9841745,80.08 C39.0241745,80.38 40.0941745,80.65 41.1741745,80.91 L41.1741745,128.42 C27.5541745,110.63 15.0341745,94.28 1.86417453,77.07 C-1.66582547,87.69 0.534174532,96.82 2.59417453,105.82 C6.19417453,121.51 16.2141745,130.53 32.0941745,133.21 C34.9341745,133.69 37.9741745,132.94 41.1041745,134.84 L41.1041745,188.94 C27.4041745,171.09 14.8841745,154.78 1.34417453,137.14 C-1.08582547,152.12 0.354174532,164.8 6.57417453,176.84 C13.8141745,190.86 27.0241745,193.89 41.5341745,194.42 C41.5341745,207.68 41.5341745,219.755959 41.5341745,232.04739 C44.6039429,232.04739 46.3875122,232.04739 49.0041745,232.04739 C49.0041745,219.535959 49.1941745,207.27 49.1941745,195.47 C51.9941745,193.46 54.1141745,193.93 56.1141745,193.8 C71.8841745,192.8 82.3241745,184.92 87.4041745,169.91 C90.2541745,161.5 91.2841745,152.78 90.7141745,143.93 L90.7241745,143.94 Z" id="Yellow"></path>
    </g>
</svg>