<?xml version="1.0" encoding="UTF-8"?>
<svg viewBox="0 0 138 217" version="1.1" xmlns="http://www.w3.org/2000/svg" xmlns:xlink="http://www.w3.org/1999/xlink">
    <title>Dandelion Wide</title>
    <g id="dandelion-wide" fill="currentColor" fill-rule="nonzero">
        <path d="M136.848904,134.274814 C136.679704,132.632583 138.471229,130.373271 133.445006,129.208779 C127.154762,134.274814 120.755036,139.450332 114.335404,144.615896 C107.87596,149.821272 101.655386,155.146083 94.8973547,160.192212 C88.4777227,164.979566 84.3970264,171.150375 73.9265568,174.942437 C74.264956,157.684077 73.4985813,141.430962 74.4242027,125.038507 C96.8580795,124.202462 115.818388,121.226539 126.766598,108.964544 C136.888715,97.6381239 138.5409,85.5652346 135.57493,71.1534095 C113.768087,87.7051119 95.9921756,103.749215 74.8123665,119.683837 L74.8123665,75.1942942 C105.517118,73.2435223 129.473792,57.2093717 129.473792,37.7116056 C129.483745,16.8701957 102.192844,0 68.5420283,0 C34.8912131,0 7.59035945,16.8701957 7.59035945,37.6916998 C7.59035945,56.1245036 29.0090386,71.4420442 57.2852782,74.7066012 C58.8578392,74.9852829 60.460259,75.2440588 62.0925375,75.4829288 L62.0925375,119.803272 C41.559668,103.201805 22.6789829,87.9439819 2.81295889,71.8899255 C-2.51185215,81.8030316 0.802469488,90.3127764 3.91773277,98.713039 C9.3520259,113.343828 24.4705081,121.763997 48.4271813,124.272132 C52.706936,124.720013 57.305184,124.023309 62.0129142,125.794928 L62.0129142,176.256222 C41.3506568,159.60499 22.4600187,144.396932 2.0366313,127.934806 C-1.62604246,141.908702 0.543693625,153.732769 9.92929513,164.969613 C20.847646,178.047747 40.7833404,180.874376 62.6598538,181.372022 C62.6598538,193.743498 62.6598538,205.494118 62.6598538,216.95988 C66.7008298,216.95988 70.3128327,217.050151 74.2251443,216.95988 C74.2251443,205.285107 74.2251443,193.365288 74.2251443,182.367313 C78.4451815,180.496165 81.6400681,180.92414 84.6558022,180.814658 C108.433323,179.879084 124.198745,172.533831 131.862492,158.530075 C136.162152,150.687176 137.714808,142.555642 136.848904,134.29472 L136.848904,134.274814 Z" id="Yellow"></path>
    </g>
</svg>