<?xml version="1.0" encoding="UTF-8"?>
<svg id="Layer_2" data-name="Layer 2" xmlns="http://www.w3.org/2000/svg" viewBox="0 0 120.66 213.34">
  <title>Drop</title>
  <g>
    <path id="Black" fill="currentColor" d="m116.33,132.62c-2.27-5.65-4.79-11.2-7.13-16.82-.57-1.36-1.41-2.65-1.45-4.21-.9-.66-1.05-1.74-1.45-2.68-8.31-19.7-16.61-39.39-24.88-59.1-4.22-10.06-8.39-20.15-12.59-30.23-2.75-6.3-5.5-12.61-8.49-19.46v-.12c-2.99,6.85-5.74,13.16-8.49,19.46-3.68,8.84-7.34,17.68-11.03,26.51l5,12.24,4.35,10.1c3.47-8.03,6.9-16.05,10.22-24.01,0,0,23.53,54.09,34.18,79.94,1.54,4.08,3.3,8.08,5.04,12.08,2.17,5.01,3.5,10.26,3.55,15.7.22,23.66-19.92,43.99-41.81,44.11-.33-.04-.67-.05-1-.06v-.12c-.33,0-.67.02-1,.06-21.89-.13-41.95-20.33-41.73-43.99.05-5.45,1.38-10.69,3.55-15.7,1.14-2.63,2.28-5.25,3.37-7.9-5.86-.83-11.2-3.3-15.54-6.93-1.58,3.65-3.17,7.3-4.65,11-14.15,35.18,7.78,73.13,45,79.87,3.69.67,7.37.99,11,.98,3.63,0,7.3-.19,11-.86,37.22-6.74,59.15-44.69,45-79.87Z"/>
    <path id="Black-2" data-name="Black" fill="currentColor" d="m4.33,132.62c2.27-5.65,4.79-11.2,7.13-16.82.57-1.36,1.41-2.65,1.45-4.21.9-.66,1.05-1.74,1.45-2.68,8.31-19.7,16.61-39.39,24.88-59.1,4.22-10.06,8.39-20.15,12.59-30.23,2.75-6.3,5.5-12.61,8.49-19.46v-.12c2.99,6.85,5.74,13.16,8.49,19.46,3.68,8.84,7.34,17.68,11.03,26.51l-5,12.24-4.35,10.1c-3.47-8.03-6.9-16.05-10.22-24.01,0,0-23.53,54.09-34.18,79.94-1.54,4.08-3.3,8.08-5.04,12.08-2.17,5.01-3.5,10.26-3.55,15.7-.22,23.66,19.92,43.99,41.81,44.11.33-.04.67-.05,1-.06v-.12c.33,0,.67.02,1,.06,21.89-.13,41.95-20.33,41.73-43.99-.05-5.45-1.38-10.69-3.55-15.7-1.14-2.63-2.28-5.25-3.37-7.9,5.86-.83,11.2-3.3,15.54-6.93,1.58,3.65,3.17,7.3,4.65,11,14.15,35.18-7.78,73.13-45,79.87-3.69.67-7.37.99-11,.98-3.63,0-7.3-.19-11-.86-37.22-6.74-59.15-44.69-45-79.87Z"/>
  </g>
</svg>