<?xml version="1.0" encoding="UTF-8"?>
<svg id="Layer_2" data-name="Layer 2" xmlns="http://www.w3.org/2000/svg" viewBox="0 0 140.21 318.16">
  <title>Leaves Outline</title>
  <g id="Layer_1-2" data-name="Layer 1">
    <path id="Black" fill="currentColor" d="m139.32,205.53c-23.13,8.57-45.72,18.33-62.84,38.18v-31.77c14.46,3.38,25.47-2.06,34.8-11.85,3.54-3.71,6.6-7.82,9.31-12.18,8.88-14.27,14.52-29.83,19.07-45.83.24-.83.84-1.76-.55-2.98-23.13,8.57-45.72,18.33-62.84,38.18v-28.96c14.85,3.43,25.69-2.32,35.04-12.08,2.77-2.89,5.26-5.98,7.47-9.3,10.31-15.47,16.45-32.64,21.39-50.3.08-.29-.18-.67-.44-1.49-23.37,8.71-46.01,18.39-63.39,38.23v-19.35c7.53-5.26,12.08-12.56,13.41-21.49,1.06-7.09.92-14.28-.34-21.38-2.98-16.86-9.56-32.47-17.35-47.65-.63-1.23-.89-2.81-2.79-3.53-8.07,15.14-14.89,30.62-18.45,47.32-1.34,6.26-2.25,12.61-1.83,19.03.78,11.83,4.9,22.01,15.29,28.29v18.96C46.9,93.58,24.32,83.81.89,75.21c-.27.87-.55,1.26-.46,1.55,4.8,17.11,10.75,33.77,20.5,48.86,4.13,6.39,8.94,12.26,15.21,16.8,7.73,5.6,16.15,8.55,25.89,6.23.72-.17,1.5-.24,2.35.68v28.25c-8.45-10.4-18.34-17.65-29.25-23.6-10.94-5.96-22.21-11.2-35.14-15.02,5.47,19.48,11.89,37.29,22.94,53.2,2.93,4.21,6.21,8.14,10.12,11.52,7.84,6.79,16.76,10.45,27.44,9.02,1.19-.16,2.42-1.08,4.09.21v31.08c-8.45-10.4-18.34-17.65-29.25-23.6-10.94-5.96-22.21-11.2-35.14-15.02,5.47,19.48,11.89,37.29,22.94,53.2,2.93,4.21,6.21,8.14,10.12,11.52,7.84,6.79,16.76,10.45,27.44,9.02,1.21-.16,2.47-1.13,4.2.28v38.75h11.7v-39.81c14.51,3.42,25.54-2.02,34.89-11.83,3.54-3.71,6.6-7.82,9.31-12.18,8.88-14.27,14.52-29.83,19.07-45.83.23-.83.84-1.76-.55-2.98Zm-56.73-79.75c2.16-5.13,5.82-9.24,9.89-13,6.83-6.3,19.77-14.28,29.03-17.93,1.24,1.33.02,2.46-.43,3.55-4.38,10.67-9.52,20.92-17.31,29.68-2.8,3.15-6.03,5.77-9.73,7.81-3.76,2.07-7.74,3.14-12.16,1.84-2.11-4.16-.91-8.12.7-11.95Zm-24.05,12.09c-5.35,1.19-9.9-.46-14.18-3.26-5.54-3.62-9.59-8.61-13.25-13.96-5.36-7.83-9.26-16.34-12.71-25.17,1.86-.96,2.89.13,3.98.67,8.59,4.25,16.87,8.99,24.14,15.22,6,5.15,11.1,10.94,12.94,18.88.62,2.66.66,5.18-.93,7.61Zm.07,63.65c-6.89,1.37-12.34-1.43-17.3-5.52-6.72-5.53-11.3-12.69-15.37-20.15-2.87-5.26-5.45-10.69-7.17-16.24.47-.86,1.08-.92,1.58-.69,11.79,5.54,22.91,12.04,31.82,21.68,3.54,3.83,6.09,8.15,7.3,13.2.58,2.41.84,4.8-.84,7.72Zm.2,66.42c-6.89,1.37-12.34-1.43-17.3-5.52-6.72-5.53-11.3-12.69-15.37-20.15-2.87-5.26-5.45-10.69-7.17-16.24.47-.86,1.08-.92,1.58-.69,11.79,5.54,22.91,12.04,31.82,21.68,3.54,3.83,6.09,8.15,7.3,13.2.58,2.41.84,4.8-.84,7.72Zm25.4-81.66c3.39-5.59,8.1-9.99,13.26-13.92,6.83-5.21,14.26-9.47,22.07-13.1.66-.31,1.33-.8,2.39.12-1.75,5.93-4.68,11.56-7.67,17.14-3.58,6.68-7.73,13-13.42,18.17-4.14,3.75-8.69,6.78-14.58,7.19-1.56.11-3.05.15-4.93-1.05-1.33-5.33.16-10.05,2.89-14.55Zm-24-121.09c-.48-6.81,1-13.47,2.65-20.02,1.65-6.52,3.8-12.92,6.94-19.92,4.14,9.82,7.11,19.03,8.7,28.67.98,5.98,1.37,11.92-.05,17.89-1.26,5.29-3.54,9.88-8.68,12.8-7.44-4.52-9.03-11.79-9.56-19.43Zm54.25,177.75c-3.58,6.68-7.73,13-13.42,18.17-4.14,3.75-8.69,6.78-14.58,7.19-1.56.11-3.05.15-4.93-1.05-1.33-5.33.16-10.05,2.89-14.55,3.39-5.59,8.1-9.99,13.26-13.92,6.83-5.21,14.26-9.47,22.07-13.1.66-.31,1.33-.8,2.39.12-1.75,5.93-4.68,11.56-7.67,17.14Z"/>
  </g>
</svg>