<?xml version="1.0" encoding="UTF-8"?>
<svg viewBox="0 0 104 167" version="1.1" xmlns="http://www.w3.org/2000/svg" xmlns:xlink="http://www.w3.org/1999/xlink">
    <title>bud-wide</title>
    <g id="bud-wide" fill="currentColor" fill-rule="nonzero">
        <path d="M56.4121333,50.3 L56.4121333,78.17 C72.2621333,68.09 86.5621333,58.37 102.422133,48.2 C104.272133,58.07 103.532133,66.85 91.4921333,74.4 C84.9521333,78.5 75.8021333,80.29 65.5621333,80.78 C62.8421333,80.91 60.0721333,80.8 57.4821333,80.8 C55.8521333,83.54 55.6421333,108.25 57.2821333,112.21 C72.2421333,102.43 86.8121333,92.9 102.372133,82.72 C104.322133,92.37 103.512133,100.92 92.3521333,108.4 C85.5921333,112.93 75.8821333,114.88 64.8521333,115.33 C62.3521333,115.43 59.8221333,115.35 56.4921333,115.35 C55.8421333,125.8 56.3721333,136.02 56.1621333,146.25 L57.6721333,146.48 C72.2421333,136.95 86.8021333,127.41 102.372133,117.23 C104.312133,126.88 103.522133,135.44 92.3521333,142.92 C85.5821333,147.45 75.8521333,149.38 64.8421333,149.86 C62.3421333,149.97 58.864873,149.86 55.994873,149.86 L55.994873,166.941364 C52.2005615,166.941364 50.4124756,166.941364 47.1421333,166.941364 L47.1421333,150.19 C42.1921333,149.64 37.3421333,149.94 32.6321333,149.43 C19.6421333,148.03 10.6321333,144.31 5.48213333,138.3 C0.202133329,132.14 -0.857866671,125.64 0.592133329,119.01 C0.662133329,118.7 1.14213333,118.42 1.81213333,117.75 C16.7021333,127.49 31.3021333,137.05 46.7121333,147.13 L46.7121333,115.63 C41.9421333,115.1 37.0921333,115.42 32.3521333,114.88 C20.5321333,113.53 11.8221333,110.31 6.58213333,104.89 C0.0521333284,98.17 -0.977866671,91.05 1.45213333,83.6 C16.8921333,92.92 31.1921333,102.63 46.8521333,112.66 L46.8521333,81.3 C44.6321333,80.51 42.0121333,80.95 39.5721333,80.87 C23.4021333,80.3 11.5921333,76.58 5.28213333,69 C-0.0578666716,62.58 -0.867866671,55.91 2.03213333,48.87 C16.6421333,58.43 31.2521333,67.98 45.8621333,77.54 C47.2821333,72.96 47.1621333,68.45 47.1821333,63.95 C47.2021333,59.46 47.1821333,54.97 47.1821333,50.78 C46.5221333,49.78 45.3021333,49.42 44.2921333,48.96 C28.3621333,41.7 22.9921333,32.76 27.7821333,22.36 C31.6721333,13.9 40.2221333,6.6 51.1221333,0 C53.6321333,0.11 54.3321333,1.07 55.3621333,1.75 C65.1921333,8.24 72.9721333,15.22 76.2221333,23.3 C80.2821333,33.42 74.6721333,41.94 59.4821333,48.91 C58.4721333,49.37 57.4621333,49.83 56.4021333,50.31 L56.4121333,50.3 Z" id="Path"></path>
    </g>
</svg>