<?xml version="1.0" encoding="UTF-8"?>
<svg id="Layer_2" data-name="Layer 2" xmlns="http://www.w3.org/2000/svg" viewBox="0 0 137.73 218.15">
  <defs>
    <style>
      .cls-1 {
        fill: #f1b722;
      }
    </style>
  </defs>
  <g id="Layer_1-2" data-name="Layer 1">
    <path id="Yellow" class="cls-1" d="m137.5,134.91c-.17-1.65,1.63-3.92-3.42-5.09-6.32,5.09-12.75,10.29-19.2,15.48-6.49,5.23-12.74,10.58-19.53,15.65-6.45,4.81-10.55,11.01-21.07,14.82.34-17.34-.43-33.67.5-50.14,22.54-.84,41.59-3.83,52.59-16.15,10.17-11.38,11.83-23.51,8.85-37.99-21.91,16.63-39.77,32.75-61.05,48.76v-44.7c30.85-1.96,54.92-18.07,54.92-37.66C130.1,16.95,102.68,0,68.87,0S7.63,16.95,7.63,37.87c0,18.52,21.52,33.91,49.93,37.19,1.58.28,3.19.54,4.83.78v44.53c-20.63-16.68-39.6-32.01-59.56-48.14-5.35,9.96-2.02,18.51,1.11,26.95,5.46,14.7,20.65,23.16,44.72,25.68,4.3.45,8.92-.25,13.65,1.53v50.7c-20.76-16.73-39.74-32.01-60.26-48.55-3.68,14.04-1.5,25.92,7.93,37.21,10.97,13.14,31,15.98,52.98,16.48,0,12.43,0,23.95,0,35.47,3.87.58,7.74.62,11.62.04,0-11.73,0-23.46,0-34.51,4.24-1.88,7.45-1.45,10.48-1.56,23.89-.94,39.73-8.32,47.43-22.39,4.32-7.88,5.88-16.05,5.01-24.35Z"/>
  </g>
</svg>