<?xml version="1.0" encoding="UTF-8"?>
<svg id="Layer_2" data-name="Layer 2" xmlns="http://www.w3.org/2000/svg" viewBox="0 0 60 337.2">
  <defs>
    <style>
      .cls-1 {
        fill: #efb62c;
      }
    </style>
  </defs>
  <g id="Layer_1-2" data-name="Layer 1">
    <g>
      <g>
        <path id="Yellow" class="cls-1" d="m30.3,0c.02,23.95.04,47.9.06,71.85-11.92-7.87-18.55-18.95-19.43-33.17-.97-15.64,5.19-28.16,17.6-37.65C29.07.62,29.71.34,30.3,0Z"/>
        <path id="Yellow-2" data-name="Yellow" class="cls-1" d="m29.9,0c-.02,23.95-.04,47.9-.06,71.85,11.92-7.87,18.55-18.95,19.43-33.17.97-15.64-5.19-28.16-17.6-37.65-.54-.41-1.18-.69-1.77-1.03Z"/>
      </g>
      <rect class="cls-1" x="27" y="22.2" width="7" height="315"/>
      <g>
        <path id="Yellow-3" data-name="Yellow" class="cls-1" d="m.84,66.18c1.95,1.34,28.92,28.76,29.16,28.92v16.99c-5.02-.96-9.78-2.34-13.97-4.75-7-4.03-11.09-9.52-13.53-15.82-3.21-8.26-2.79-16.86-1.66-25.35Z"/>
        <path id="Yellow-4" data-name="Yellow" class="cls-1" d="m59.16,66.18c-1.95,1.34-28.92,28.76-29.16,28.92v16.99c5.02-.96,9.78-2.34,13.97-4.75,7-4.03,11.09-9.52,13.53-15.82,3.21-8.26,2.79-16.86,1.66-25.35Z"/>
      </g>
      <g>
        <path id="Yellow-5" data-name="Yellow" class="cls-1" d="m.84,112.18c1.95,1.34,28.92,28.76,29.16,28.92v16.99c-5.02-.96-9.78-2.34-13.97-4.75-7-4.03-11.09-9.52-13.53-15.82-3.21-8.26-2.79-16.86-1.66-25.35Z"/>
        <path id="Yellow-6" data-name="Yellow" class="cls-1" d="m59.16,112.18c-1.95,1.34-28.92,28.76-29.16,28.92v16.99c5.02-.96,9.78-2.34,13.97-4.75,7-4.03,11.09-9.52,13.53-15.82,3.21-8.26,2.79-16.86,1.66-25.35Z"/>
      </g>
      <g>
        <path id="Yellow-7" data-name="Yellow" class="cls-1" d="m.84,158.18c1.95,1.34,28.92,28.76,29.16,28.92v16.99c-5.02-.96-9.78-2.34-13.97-4.75-7-4.03-11.09-9.52-13.53-15.82-3.21-8.26-2.79-16.86-1.66-25.35Z"/>
        <path id="Yellow-8" data-name="Yellow" class="cls-1" d="m59.16,158.18c-1.95,1.34-28.92,28.76-29.16,28.92v16.99c5.02-.96,9.78-2.34,13.97-4.75,7-4.03,11.09-9.52,13.53-15.82,3.21-8.26,2.79-16.86,1.66-25.35Z"/>
      </g>
      <g>
        <path id="Yellow-9" data-name="Yellow" class="cls-1" d="m.84,204.18c1.95,1.34,28.92,28.76,29.16,28.92v16.99c-5.02-.96-9.78-2.34-13.97-4.75-7-4.03-11.09-9.52-13.53-15.82-3.21-8.26-2.79-16.86-1.66-25.35Z"/>
        <path id="Yellow-10" data-name="Yellow" class="cls-1" d="m59.16,204.18c-1.95,1.34-28.92,28.76-29.16,28.92v16.99c5.02-.96,9.78-2.34,13.97-4.75,7-4.03,11.09-9.52,13.53-15.82,3.21-8.26,2.79-16.86,1.66-25.35Z"/>
      </g>
      <g>
        <path id="Yellow-11" data-name="Yellow" class="cls-1" d="m.84,250.18c1.95,1.34,28.92,28.76,29.16,28.92v16.99c-5.02-.96-9.78-2.34-13.97-4.75-7-4.03-11.09-9.52-13.53-15.82-3.21-8.26-2.79-16.86-1.66-25.35Z"/>
        <path id="Yellow-12" data-name="Yellow" class="cls-1" d="m59.16,250.18c-1.95,1.34-28.92,28.76-29.16,28.92v16.99c5.02-.96,9.78-2.34,13.97-4.75,7-4.03,11.09-9.52,13.53-15.82,3.21-8.26,2.79-16.86,1.66-25.35Z"/>
      </g>
    </g>
  </g>
</svg>