<svg width="60" height="337" viewBox="0 0 60 337" fill="none" xmlns="http://www.w3.org/2000/svg">
<path d="M30.2919 0C30.3119 23.95 30.3319 47.9 30.3519 71.85C18.4319 63.98 11.8019 52.9 10.9219 38.68C9.95186 23.04 16.1119 10.52 28.5219 1.03C29.0619 0.62 29.7019 0.34 30.2919 0Z" fill="currentColor"/>
<path d="M29.8919 0C29.8719 23.95 29.8519 47.9 29.8319 71.85C41.7519 63.98 48.3819 52.9 49.2619 38.68C50.2319 23.04 44.0719 10.52 31.6619 1.03C31.1219 0.62 30.4819 0.34 29.8919 0Z" fill="currentColor"/>
<path d="M33.9919 22H26.9919L27 337H33.9919V22Z" fill="currentColor"/>
<path d="M0.831863 66.18C2.78186 67.52 29.7519 94.94 29.9919 95.1V112.09C24.9719 111.13 20.2119 109.75 16.0219 107.34C9.02186 103.31 4.93186 97.82 2.49186 91.52C-0.718137 83.26 -0.298137 74.66 0.831863 66.17V66.18Z" fill="currentColor"/>
<path d="M59.1519 66.18C57.2019 67.52 30.2319 94.94 29.9919 95.1V112.09C35.0119 111.13 39.7719 109.75 43.9619 107.34C50.9619 103.31 55.0519 97.82 57.4919 91.52C60.7019 83.26 60.2819 74.66 59.1519 66.17V66.18Z" fill="currentColor"/>
<path d="M0.831863 112.18C2.78186 113.52 29.7519 140.94 29.9919 141.1V158.09C24.9719 157.13 20.2119 155.75 16.0219 153.34C9.02186 149.31 4.93186 143.82 2.49186 137.52C-0.718137 129.26 -0.298137 120.66 0.831863 112.17V112.18Z" fill="currentColor"/>
<path d="M59.1519 112.18C57.2019 113.52 30.2319 140.94 29.9919 141.1V158.09C35.0119 157.13 39.7719 155.75 43.9619 153.34C50.9619 149.31 55.0519 143.82 57.4919 137.52C60.7019 129.26 60.2819 120.66 59.1519 112.17V112.18Z" fill="currentColor"/>
<path d="M0.831863 158.18C2.78186 159.52 29.7519 186.94 29.9919 187.1V204.09C24.9719 203.13 20.2119 201.75 16.0219 199.34C9.02186 195.31 4.93186 189.82 2.49186 183.52C-0.718137 175.26 -0.298137 166.66 0.831863 158.17V158.18Z" fill="currentColor"/>
<path d="M59.1519 158.18C57.2019 159.52 30.2319 186.94 29.9919 187.1V204.09C35.0119 203.13 39.7719 201.75 43.9619 199.34C50.9619 195.31 55.0519 189.82 57.4919 183.52C60.7019 175.26 60.2819 166.66 59.1519 158.17V158.18Z" fill="currentColor"/>
<path d="M0.831863 204.18C2.78186 205.52 29.7519 232.94 29.9919 233.1V250.09C24.9719 249.13 20.2119 247.75 16.0219 245.34C9.02186 241.31 4.93186 235.82 2.49186 229.52C-0.718137 221.26 -0.298137 212.66 0.831863 204.17V204.18Z" fill="currentColor"/>
<path d="M59.1519 204.18C57.2019 205.52 30.2319 232.94 29.9919 233.1V250.09C35.0119 249.13 39.7719 247.75 43.9619 245.34C50.9619 241.31 55.0519 235.82 57.4919 229.52C60.7019 221.26 60.2819 212.66 59.1519 204.17V204.18Z" fill="currentColor"/>
<path d="M0.831863 250.18C2.78186 251.52 29.7519 278.94 29.9919 279.1V296.09C24.9719 295.13 20.2119 293.75 16.0219 291.34C9.02186 287.31 4.93186 281.82 2.49186 275.52C-0.718137 267.26 -0.298137 258.66 0.831863 250.17V250.18Z" fill="currentColor"/>
<path d="M59.1519 250.18C57.2019 251.52 30.2319 278.94 29.9919 279.1V296.09C35.0119 295.13 39.7719 293.75 43.9619 291.34C50.9619 287.31 55.0519 281.82 57.4919 275.52C60.7019 267.26 60.2819 258.66 59.1519 250.17V250.18Z" fill="currentColor"/>
</svg>
