<?xml version="1.0" encoding="UTF-8"?>
<svg id="Layer_2" data-name="Layer 2" xmlns="http://www.w3.org/2000/svg" viewBox="0 0 140.21 318.16">
  <title>Leaves Fill</title>
  <g id="Layer_1-2" data-name="Layer 1">
    <path id="Black" fill="currentColor" d="m139.32,205.53c-23.13,8.57-45.72,18.33-62.84,38.18v-31.77c14.46,3.38,25.47-2.06,34.8-11.85,3.54-3.71,6.6-7.82,9.31-12.18,8.88-14.27,14.52-29.83,19.07-45.83.24-.83.84-1.76-.55-2.98-23.13,8.57-45.72,18.33-62.84,38.18v-28.96c14.85,3.43,25.69-2.32,35.04-12.08,2.77-2.89,5.26-5.98,7.47-9.3,10.31-15.47,16.45-32.64,21.39-50.3.08-.29-.18-.67-.44-1.49-23.37,8.71-46.01,18.39-63.39,38.23v-19.35c7.53-5.26,12.08-12.56,13.41-21.49,1.06-7.09.92-14.28-.34-21.38-2.98-16.86-9.56-32.47-17.35-47.65-.63-1.23-.89-2.81-2.79-3.53-8.07,15.14-14.89,30.62-18.45,47.32-1.34,6.26-2.25,12.61-1.83,19.03.78,11.83,4.9,22.01,15.29,28.29v18.96C46.9,93.58,24.32,83.81.89,75.21c-.27.87-.55,1.26-.46,1.55,4.8,17.11,10.75,33.77,20.5,48.86,4.13,6.39,8.94,12.26,15.21,16.8,7.73,5.6,16.15,8.55,25.89,6.23.72-.17,1.5-.24,2.35.68v28.25c-8.45-10.4-18.34-17.65-29.25-23.6-10.94-5.96-22.21-11.2-35.14-15.02,5.47,19.48,11.89,37.29,22.94,53.2,2.93,4.21,6.21,8.14,10.12,11.52,7.84,6.79,16.76,10.45,27.44,9.02,1.19-.16,2.42-1.08,4.09.21v31.08c-8.45-10.4-18.34-17.65-29.25-23.6-10.94-5.96-22.21-11.2-35.14-15.02,5.47,19.48,11.89,37.29,22.94,53.2,2.93,4.21,6.21,8.14,10.12,11.52,7.84,6.79,16.76,10.45,27.44,9.02,1.21-.16,2.47-1.13,4.2.28v38.75h11.7v-39.81c14.51,3.42,25.54-2.02,34.89-11.83,3.54-3.71,6.6-7.82,9.31-12.18,8.88-14.27,14.52-29.83,19.07-45.83.23-.83.84-1.76-.55-2.98Z"/>
  </g>
</svg>